<?xml version="1.0" encoding="UTF-8"?>
<!DOCTYPE svg PUBLIC "-//W3C//DTD SVG 1.1//EN" "http://www.w3.org/Graphics/SVG/1.1/DTD/svg11.dtd">
<svg xmlns="http://www.w3.org/2000/svg" version="1.1" width="640px" height="134px" style="shape-rendering:geometricPrecision; text-rendering:geometricPrecision; image-rendering:optimizeQuality; fill-rule:evenodd; clip-rule:evenodd" xmlns:xlink="http://www.w3.org/1999/xlink">
<g><path style="opacity:0.849" fill="#fefffe" d="M 540.5,6.5 C 546.509,6.33385 552.509,6.50051 558.5,7C 554.221,11.2792 549.887,15.6126 545.5,20C 541.459,20.8265 537.459,20.6599 533.5,19.5C 536.621,15.5906 538.955,11.2572 540.5,6.5 Z"/></g>
<g><path style="opacity:0.866" fill="#fefffe" d="M 38.5,21.5 C 50.9297,20.5438 59.9297,25.5438 65.5,36.5C 61.8872,38.89 58.0538,40.89 54,42.5C 52.1628,40.3874 49.9961,38.5541 47.5,37C 34.2711,35.0511 27.6045,40.8844 27.5,54.5C 27.7757,60.8835 30.109,66.3835 34.5,71C 42.6905,75.0465 49.1905,73.2132 54,65.5C 58.1029,67.4645 61.9362,69.7979 65.5,72.5C 55.8938,87.9872 42.8938,91.4872 26.5,83C 12.4394,69.5929 9.60609,54.0929 18,36.5C 22.76,28.561 29.5933,23.561 38.5,21.5 Z"/></g>
<g><path style="opacity:0.885" fill="#fefffe" d="M 87.5,21.5 C 103.847,21.2493 114.347,28.9159 119,44.5C 122.365,59.056 118.865,71.556 108.5,82C 97.5,89.3333 86.5,89.3333 75.5,82C 66.0413,72.0109 62.5413,60.1776 65,46.5C 67.1812,33.1618 74.6812,24.8284 87.5,21.5 Z M 86.5,36.5 C 98.3546,34.5085 104.521,39.5085 105,51.5C 105.937,58.8371 104.103,65.3371 99.5,71C 88.5572,75.6117 81.7239,72.1117 79,60.5C 78.2282,55.0958 78.5615,49.7625 80,44.5C 81.3046,41.0386 83.4713,38.372 86.5,36.5 Z"/></g>
<g><path style="opacity:0.864" fill="#fefffe" d="M 353.5,21.5 C 365.967,20.7324 375.3,25.7324 381.5,36.5C 377.779,39.0272 373.779,41.0272 369.5,42.5C 365.102,36.9175 359.436,35.0842 352.5,37C 349.667,38.5 347.5,40.6667 346,43.5C 343.772,51.6308 344.105,59.6308 347,67.5C 355.358,75.668 363.025,75.0014 370,65.5C 374.193,67.1662 377.693,69.6662 380.5,73C 372.321,86.6397 360.654,90.6397 345.5,85C 334.542,77.9213 329.208,67.7547 329.5,54.5C 329.603,42.126 334.603,32.2927 344.5,25C 347.571,23.7043 350.571,22.5377 353.5,21.5 Z"/></g>
<g><path style="opacity:0.869" fill="#fefffe" d="M 462.5,21.5 C 474.708,20.6007 483.708,25.4341 489.5,36C 486.175,38.7544 482.342,40.9211 478,42.5C 476.163,40.3874 473.996,38.5541 471.5,37C 463.565,34.72 457.731,37.22 454,44.5C 450.9,54.0485 452.4,62.7151 458.5,70.5C 463.367,74.1306 468.367,74.2972 473.5,71C 475.24,68.9647 477.074,67.1314 479,65.5C 482.323,67.4841 485.657,69.4841 489,71.5C 486.457,80.027 480.624,85.1936 471.5,87C 453.885,88.6047 443.052,80.7714 439,63.5C 434.735,42.3347 442.569,28.3347 462.5,21.5 Z"/></g>
<g><path style="opacity:0.881" fill="#fefffe" d="M 537.5,21.5 C 558.842,22.2942 569.509,33.4609 569.5,55C 568.604,79.2423 556.271,89.5756 532.5,86C 523.416,81.9181 517.583,75.0848 515,65.5C 514.333,58.1667 514.333,50.8333 515,43.5C 518.455,31.8763 525.955,24.5429 537.5,21.5 Z M 536.5,36.5 C 547.819,34.5602 553.986,39.2268 555,50.5C 555.843,57.2862 554.509,63.6196 551,69.5C 544.366,75.093 538.032,74.7596 532,68.5C 528.246,60.7818 527.579,52.7818 530,44.5C 531.305,41.0386 533.471,38.372 536.5,36.5 Z"/></g>
<g><path style="opacity:0.869" fill="#fefffe" d="M 124.5,22.5 C 128.514,22.3345 132.514,22.5012 136.5,23C 143.265,35.0327 149.099,47.5327 154,60.5C 158.755,47.8967 164.088,35.5633 170,23.5C 174.401,22.5333 178.901,22.2 183.5,22.5C 183.5,43.8333 183.5,65.1667 183.5,86.5C 178.833,86.5 174.167,86.5 169.5,86.5C 169.666,76.1613 169.5,65.828 169,55.5C 164.09,66.3198 158.923,76.9865 153.5,87.5C 148.082,76.3266 142.915,64.9932 138,53.5C 137.5,64.495 137.333,75.495 137.5,86.5C 132.833,86.5 128.167,86.5 123.5,86.5C 123.178,65.0912 123.512,43.7579 124.5,22.5 Z"/></g>
<g><path style="opacity:0.869" fill="#fefffe" d="M 191.5,22.5 C 195.833,22.5 200.167,22.5 204.5,22.5C 204.333,35.8375 204.5,49.1708 205,62.5C 207.274,72.2563 213.107,75.4229 222.5,72C 225.467,69.8995 227.3,67.0662 228,63.5C 228.5,49.8374 228.667,36.1707 228.5,22.5C 233.167,22.5 237.833,22.5 242.5,22.5C 242.667,37.1705 242.5,51.8371 242,66.5C 236.886,83.9801 225.386,90.4801 207.5,86C 196.81,80.9562 191.31,72.4562 191,60.5C 190.188,47.7579 190.354,35.0912 191.5,22.5 Z"/></g>
<g><path style="opacity:0.875" fill="#fefffe" d="M 249.5,22.5 C 253.846,22.3343 258.179,22.501 262.5,23C 271.037,34.5722 279.204,46.4056 287,58.5C 287.333,46.8333 287.667,35.1667 288,23.5C 292.401,22.5333 296.901,22.2 301.5,22.5C 301.5,43.8333 301.5,65.1667 301.5,86.5C 297.486,86.6655 293.486,86.4988 289.5,86C 280.607,73.438 272.107,60.6047 264,47.5C 263.5,60.4957 263.333,73.4957 263.5,86.5C 258.833,86.5 254.167,86.5 249.5,86.5C 249.5,65.1667 249.5,43.8333 249.5,22.5 Z"/></g>
<g><path style="opacity:0.913" fill="#fefffe" d="M 310.5,22.5 C 314.833,22.5 319.167,22.5 323.5,22.5C 323.5,43.8333 323.5,65.1667 323.5,86.5C 319.167,86.5 314.833,86.5 310.5,86.5C 310.5,65.1667 310.5,43.8333 310.5,22.5 Z"/></g>
<g><path style="opacity:0.876" fill="#fefffe" d="M 403.5,22.5 C 408.099,22.2 412.599,22.5333 417,23.5C 424.847,44.5217 432.681,65.5217 440.5,86.5C 435.489,86.6659 430.489,86.4993 425.5,86C 423.544,81.9698 421.878,77.8031 420.5,73.5C 413.167,72.1667 405.833,72.1667 398.5,73.5C 397.122,77.8031 395.456,81.9698 393.5,86C 388.845,86.4992 384.179,86.6658 379.5,86.5C 387.393,64.7832 395.393,43.4499 403.5,22.5 Z M 409.5,41.5 C 411.673,47.3528 413.673,53.3528 415.5,59.5C 411.486,59.6655 407.486,59.4988 403.5,59C 406.197,53.4094 408.197,47.5761 409.5,41.5 Z"/></g>
<g><path style="opacity:0.85" fill="#fefffe" d="M 494.5,22.5 C 499.167,22.5 503.833,22.5 508.5,22.5C 508.5,43.8333 508.5,65.1667 508.5,86.5C 503.833,86.5 499.167,86.5 494.5,86.5C 494.5,65.1667 494.5,43.8333 494.5,22.5 Z"/></g>
<g><path style="opacity:0.881" fill="#fefffe" d="M 573.5,22.5 C 577.846,22.3343 582.179,22.501 586.5,23C 595.389,34.8903 603.889,47.057 612,59.5C 612.5,47.1712 612.667,34.8378 612.5,22.5C 616.833,22.5 621.167,22.5 625.5,22.5C 625.5,43.8333 625.5,65.1667 625.5,86.5C 621.233,86.797 617.066,86.4637 613,85.5C 605,73.5 597,61.5 589,49.5C 588.667,61.5 588.333,73.5 588,85.5C 583.263,86.4692 578.43,86.8025 573.5,86.5C 573.5,65.1667 573.5,43.8333 573.5,22.5 Z"/></g>
<g><path style="opacity:0.958" fill="#00c5ec" d="M 13.5,92.5 C 116.834,92.3333 220.167,92.5 323.5,93C 324.483,101.415 324.817,109.915 324.5,118.5C 220.833,118.5 117.167,118.5 13.5,118.5C 13.5,109.833 13.5,101.167 13.5,92.5 Z"/></g>
<g><path style="opacity:0.742" fill="#ff5b6b" d="M 336.5,92.5 C 341.355,91.9487 345.355,93.4487 348.5,97C 347.708,98.9597 346.375,100.46 344.5,101.5C 342.07,99.429 339.403,99.0956 336.5,100.5C 339.28,102.117 342.28,103.284 345.5,104C 350.368,108.172 350.702,112.672 346.5,117.5C 340.616,119.205 335.116,118.539 330,115.5C 329.551,112.906 330.551,110.906 333,109.5C 336.183,112.671 339.683,113.171 343.5,111C 338.799,109.773 334.632,107.606 331,104.5C 328.87,98.7335 330.703,94.7335 336.5,92.5 Z"/></g>
<g><path style="opacity:0.764" fill="#ff5b6b" d="M 361.5,92.5 C 363.195,93.0114 364.861,93.6781 366.5,94.5C 368.999,102.255 371.666,110.255 374.5,118.5C 372.167,118.5 369.833,118.5 367.5,118.5C 368.176,114.51 366.51,112.843 362.5,113.5C 358.823,113.199 357.157,114.866 357.5,118.5C 355.167,118.5 352.833,118.5 350.5,118.5C 353.115,109.284 356.782,100.617 361.5,92.5 Z M 362.5,102.5 C 363.234,103.878 363.901,105.378 364.5,107C 363.365,107.749 362.365,107.583 361.5,106.5C 362.246,105.264 362.579,103.93 362.5,102.5 Z"/></g>
<g><path style="opacity:0.724" fill="#ff5b6b" d="M 379.5,92.5 C 380.806,92.879 382.139,93.2124 383.5,93.5C 384.496,99.7985 384.83,106.132 384.5,112.5C 388.5,112.5 392.5,112.5 396.5,112.5C 396.5,114.5 396.5,116.5 396.5,118.5C 390.167,118.5 383.833,118.5 377.5,118.5C 376.908,109.566 377.575,100.899 379.5,92.5 Z"/></g>
<g><path style="opacity:0.712" fill="#ff5b6b" d="M 401.5,92.5 C 402.15,92.8039 402.817,93.1373 403.5,93.5C 404.33,99.1376 404.83,104.804 405,110.5C 407.333,113.167 409.667,113.167 412,110.5C 412.499,104.843 412.666,99.1764 412.5,93.5C 414.833,93.5 417.167,93.5 419.5,93.5C 419.829,100.241 419.329,106.908 418,113.5C 413.894,118.28 408.728,119.613 402.5,117.5C 400.282,116.076 398.782,114.076 398,111.5C 397.501,105.509 397.334,99.5092 397.5,93.5C 399.099,93.7678 400.432,93.4345 401.5,92.5 Z"/></g>
<g><path style="opacity:0.736" fill="#ff5b6b" d="M 424.5,92.5 C 440.039,90.8633 446.205,97.5299 443,112.5C 441.316,114.351 439.483,116.018 437.5,117.5C 432.544,118.494 427.544,118.827 422.5,118.5C 421.908,109.566 422.575,100.899 424.5,92.5 Z M 429.5,99.5 C 434.548,98.664 437.215,100.664 437.5,105.5C 437.385,110.57 434.719,112.903 429.5,112.5C 429.5,108.167 429.5,103.833 429.5,99.5 Z"/></g>
<g><path style="opacity:0.747" fill="#ff5b6b" d="M 463.5,92.5 C 468.355,91.9487 472.355,93.4487 475.5,97C 474.73,98.7748 473.563,100.275 472,101.5C 469.36,99.4765 466.527,99.1432 463.5,100.5C 466.28,102.117 469.28,103.284 472.5,104C 477.483,108.09 477.817,112.59 473.5,117.5C 468.833,118.833 464.167,118.833 459.5,117.5C 455.564,114.743 455.731,112.076 460,109.5C 462.757,111.795 465.923,112.795 469.5,112.5C 469.5,111.5 469.5,110.5 469.5,109.5C 460.894,109.734 457.061,105.734 458,97.5C 459.352,95.251 461.185,93.5844 463.5,92.5 Z"/></g>
<g><path style="opacity:0.68" fill="#ff5b6b" d="M 484.5,92.5 C 485.15,92.8039 485.817,93.1373 486.5,93.5C 487.498,101.807 487.831,110.14 487.5,118.5C 485.167,118.5 482.833,118.5 480.5,118.5C 480.5,110.167 480.5,101.833 480.5,93.5C 482.099,93.7678 483.432,93.4345 484.5,92.5 Z"/></g>
<g><path style="opacity:0.73" fill="#ff5b6b" d="M 499.5,92.5 C 505.372,91.9366 509.706,94.27 512.5,99.5C 510.51,100.498 508.51,101.498 506.5,102.5C 501.691,97.9353 498.358,98.9353 496.5,105.5C 496.709,110.887 499.376,113.054 504.5,112C 501.346,110.252 500.679,107.752 502.5,104.5C 505.833,104.5 509.167,104.5 512.5,104.5C 512.942,116.718 507.276,121.052 495.5,117.5C 490.769,112.793 489.269,107.126 491,100.5C 493.098,96.8972 495.932,94.2305 499.5,92.5 Z"/></g>
<g><path style="opacity:0.771" fill="#ff5b6b" d="M 543.5,92.5 C 554.591,93.4361 559.091,99.4361 557,110.5C 553.931,117.805 548.431,120.305 540.5,118C 534.058,111.423 533.224,104.256 538,96.5C 539.5,94.5313 541.333,93.198 543.5,92.5 Z M 543.5,99.5 C 546.044,99.1043 548.211,99.771 550,101.5C 550.929,105.244 550.429,108.744 548.5,112C 543.463,112.655 541.13,110.322 541.5,105C 541.395,102.822 542.061,100.988 543.5,99.5 Z"/></g>
<g><path style="opacity:0.75" fill="#ff5b6b" d="M 569.5,92.5 C 571.391,93.5361 573.224,93.5361 575,92.5C 577.316,94.4704 579.149,96.8037 580.5,99.5C 581.711,97.5781 583.044,95.7448 584.5,94C 586.556,93.6892 588.556,93.1892 590.5,92.5C 591.583,93.365 591.749,94.365 591,95.5C 588.584,98.6628 586.418,101.996 584.5,105.5C 587.133,109.771 589.466,114.104 591.5,118.5C 589.143,118.663 586.81,118.497 584.5,118C 583.292,115.75 581.959,113.583 580.5,111.5C 579.167,113.5 577.833,115.5 576.5,117.5C 574.257,118.474 571.924,118.808 569.5,118.5C 571.025,113.786 573.359,109.453 576.5,105.5C 573.359,101.547 571.025,97.2141 569.5,92.5 Z"/></g>
<g><path style="opacity:0.747" fill="#ff5b6b" d="M 593.5,92.5 C 595.391,93.5361 597.224,93.5361 599,92.5C 601.304,94.4311 603.138,96.7644 604.5,99.5C 605.711,97.5781 607.044,95.7448 608.5,94C 610.556,93.6892 612.556,93.1892 614.5,92.5C 615.583,93.365 615.749,94.365 615,95.5C 612.457,98.7486 610.291,102.249 608.5,106C 611.257,110.022 613.59,114.189 615.5,118.5C 613.076,118.808 610.743,118.474 608.5,117.5C 607.081,115.664 605.914,113.664 605,111.5C 603.13,113.405 601.63,115.572 600.5,118C 598.19,118.497 595.857,118.663 593.5,118.5C 595.329,113.976 597.662,109.642 600.5,105.5C 597.662,101.358 595.329,97.0242 593.5,92.5 Z"/></g>
<g><path style="opacity:0.722" fill="#ff5b6b" d="M 620.5,92.5 C 622.042,93.3007 623.708,93.634 625.5,93.5C 625.5,101.833 625.5,110.167 625.5,118.5C 623.167,118.5 620.833,118.5 618.5,118.5C 617.908,109.566 618.575,100.899 620.5,92.5 Z"/></g>
<g><path style="opacity:0.719" fill="#ff5b6b" d="M 515.5,93.5 C 517.833,93.5 520.167,93.5 522.5,93.5C 522.5,99.8333 522.5,106.167 522.5,112.5C 525.777,112.784 528.943,112.451 532,111.5C 534.103,113.303 534.936,115.636 534.5,118.5C 528.167,118.5 521.833,118.5 515.5,118.5C 515.5,110.167 515.5,101.833 515.5,93.5 Z"/></g>
</svg>
